<?xml version="1.0" encoding="utf-8"?>
<!-- Generator: Adobe Illustrator 27.3.0, SVG Export Plug-In . SVG Version: 6.00 Build 0)  -->
<svg version="1.1" id="Layer_1" xmlns="http://www.w3.org/2000/svg" xmlns:xlink="http://www.w3.org/1999/xlink" x="0px" y="0px"
	 viewBox="0 0 806.2 599" style="enable-background:new 0 0 806.2 599;" xml:space="preserve">
<style type="text/css">
	.st0{fill:none;}
	.st1{fill:#B3B3B3;}
	.st2{fill:#FFFFFF;}
	.st3{clip-path:url(#SVGID_00000078732451645537714310000017750589137239027890_);}
	.st4{fill:#705D84;}
	.st5{clip-path:url(#SVGID_00000091706723643240096710000000324843859254314633_);}
	.st6{fill:#1D003D;}
	.st7{clip-path:url(#SVGID_00000111893314351947450020000003815017060756536489_);}
	.st8{fill:#121212;}
	.st9{fill:#080808;}
	.st10{opacity:0.12;}
	.st11{fill:url(#SVGID_00000056414525263736676130000005050720068541502862_);}
	.st12{clip-path:url(#SVGID_00000160908304813010438470000015001269587110615429_);}
	.st13{clip-path:url(#SVGID_00000001663501566521314370000007781159285523384466_);}
	.st14{fill:#AC66F8;}
	.st15{fill:#540B69;}
	.st16{fill:#8C00B6;}
	.st17{fill:#C771FF;}
	.st18{fill:#C1272D;}
	.st19{opacity:8.000000e-02;fill:url(#SVGID_00000052784625527993748840000000831536473110304917_);enable-background:new    ;}
	.st20{opacity:0.22;enable-background:new    ;}
	.st21{opacity:8.000000e-02;fill:url(#SVGID_00000134945249376351745280000012928326588367237821_);enable-background:new    ;}
	.st22{enable-background:new    ;}
	.st23{opacity:0.25;fill:#8C00B6;enable-background:new    ;}
	.st24{opacity:0.2;}
	.st25{fill:url(#SVGID_00000080918023826251042610000001144103468114944956_);}
	.st26{opacity:8.000000e-02;}
</style>
<pattern  y="599" width="40" height="103" patternUnits="userSpaceOnUse" id="SVGID_0000003478933974199255531" viewBox="0 -231.8 40 103" style="overflow:visible;">
	<g>
		<rect y="-231.8" class="st0" width="40" height="103"/>
		<g>
			<rect y="-231.8" class="st0" width="40" height="103"/>
			<rect y="-231.8" class="st0" width="40" height="103"/>
			<g>
				<polygon class="st0" points="0,-231.8 40,-231.8 40,-128.8 0,-128.8 				"/>
				<g>
					<polygon class="st0" points="0,-231.8 40,-231.8 40,-128.8 0,-128.8 					"/>
					<polygon points="34.5,0 37.5,0 37.5,-154.5 34.5,-154.5 					"/>
					<polygon points="26.5,0 29.5,0 29.5,-154.5 26.5,-154.5 					"/>
					<polygon points="18.5,0 21.5,0 21.5,-154.5 18.5,-154.5 					"/>
					<polygon points="10.5,0 13.5,0 13.5,-154.5 10.5,-154.5 					"/>
					<polygon points="2.5,0 5.5,0 5.5,-154.5 2.5,-154.5 					"/>
					<polygon points="34.5,-103 37.5,-103 37.5,-257.5 34.5,-257.5 					"/>
					<polygon points="26.5,-103 29.5,-103 29.5,-257.5 26.5,-257.5 					"/>
					<polygon points="18.5,-103 21.5,-103 21.5,-257.5 18.5,-257.5 					"/>
					<polygon points="10.5,-103 13.5,-103 13.5,-257.5 10.5,-257.5 					"/>
					<polygon points="2.5,-103 5.5,-103 5.5,-257.5 2.5,-257.5 					"/>
					<polygon points="34.5,-206 37.5,-206 37.5,-360.5 34.5,-360.5 					"/>
					<polygon points="26.5,-206 29.5,-206 29.5,-360.5 26.5,-360.5 					"/>
					<polygon points="18.5,-206 21.5,-206 21.5,-360.5 18.5,-360.5 					"/>
					<polygon points="10.5,-206 13.5,-206 13.5,-360.5 10.5,-360.5 					"/>
					<polygon points="2.5,-206 5.5,-206 5.5,-360.5 2.5,-360.5 					"/>
				</g>
			</g>
		</g>
	</g>
</pattern>
<pattern  y="599" width="71" height="71" patternUnits="userSpaceOnUse" id="SVGID_0000004702634331666063813" viewBox="0 -71 71 71" style="overflow:visible;">
	<g>
		<rect y="-71" class="st0" width="71" height="71"/>
		<g>
			<rect y="-71" class="st0" width="71" height="71"/>
			<rect y="-71" class="st0" width="71" height="71"/>
			<g>
				<polygon class="st0" points="0,-71 71,-71 71,0 0,0 				"/>
				<g>
					<polygon class="st0" points="0,-71 71,-71 71,0 0,0 					"/>
					<path class="st1" d="M41.8-35.5c0,3.5-2.8,6.3-6.3,6.3s-6.3-2.8-6.3-6.3s2.8-6.3,6.3-6.3l0,0C39-41.8,41.8-39,41.8-35.5
						L41.8-35.5z"/>
				</g>
			</g>
		</g>
	</g>
</pattern>
<pattern  y="599" width="71" height="71" patternUnits="userSpaceOnUse" id="SVGID_0000008809713174215827409" viewBox="0 -71 71 71" style="overflow:visible;">
	<g>
		<rect y="-71" class="st0" width="71" height="71"/>
		<g>
			<rect y="-71" class="st0" width="71" height="71"/>
			<rect y="-71" class="st0" width="71" height="71"/>
			<g>
				<polygon class="st0" points="0,-71 71,-71 71,0 0,0 				"/>
				<g>
					<polygon class="st0" points="0,-71 71,-71 71,0 0,0 					"/>
					<path class="st2" d="M41.8-35.5c0,3.5-2.8,6.3-6.3,6.3s-6.3-2.8-6.3-6.3s2.8-6.3,6.3-6.3l0,0C39-41.8,41.8-39,41.8-35.5
						L41.8-35.5z"/>
				</g>
			</g>
		</g>
	</g>
</pattern>
<pattern  y="599" width="40" height="103" patternUnits="userSpaceOnUse" id="SVGID_0000014505062166225811435" viewBox="0 -231.8 40 103" style="overflow:visible;">
	<g>
		<rect y="-231.8" class="st0" width="40" height="103"/>
		<g>
			<rect y="-231.8" class="st0" width="40" height="103"/>
			<rect y="-231.8" class="st0" width="40" height="103"/>
			<g>
				<polygon class="st0" points="0,-231.8 40,-231.8 40,-128.8 0,-128.8 				"/>
				<g>
					<polygon class="st0" points="0,-231.8 40,-231.8 40,-128.8 0,-128.8 					"/>
					<polygon points="34.5,0 37.5,0 37.5,-154.5 34.5,-154.5 					"/>
					<polygon points="26.5,0 29.5,0 29.5,-154.5 26.5,-154.5 					"/>
					<polygon points="18.5,0 21.5,0 21.5,-154.5 18.5,-154.5 					"/>
					<polygon points="10.5,0 13.5,0 13.5,-154.5 10.5,-154.5 					"/>
					<polygon points="2.5,0 5.5,0 5.5,-154.5 2.5,-154.5 					"/>
					<polygon points="34.5,-103 37.5,-103 37.5,-257.5 34.5,-257.5 					"/>
					<polygon points="26.5,-103 29.5,-103 29.5,-257.5 26.5,-257.5 					"/>
					<polygon points="18.5,-103 21.5,-103 21.5,-257.5 18.5,-257.5 					"/>
					<polygon points="10.5,-103 13.5,-103 13.5,-257.5 10.5,-257.5 					"/>
					<polygon points="2.5,-103 5.5,-103 5.5,-257.5 2.5,-257.5 					"/>
					<polygon points="34.5,-206 37.5,-206 37.5,-360.5 34.5,-360.5 					"/>
					<polygon points="26.5,-206 29.5,-206 29.5,-360.5 26.5,-360.5 					"/>
					<polygon points="18.5,-206 21.5,-206 21.5,-360.5 18.5,-360.5 					"/>
					<polygon points="10.5,-206 13.5,-206 13.5,-360.5 10.5,-360.5 					"/>
					<polygon points="2.5,-206 5.5,-206 5.5,-360.5 2.5,-360.5 					"/>
				</g>
			</g>
		</g>
	</g>
</pattern>
<g>
	<g>
		<defs>
			<path id="SVGID_1_" d="M801.4,418.7c-2.9-15.5-17.7-102.5-32-144.6c-9.4-27.7-13.1-53-17-64.9c-12-35.7-33-65.7-33-65.7
				s-9.5-13.1-10.1-16.3s-4.7-8.6-4.7-8.6s-17.4-5.7-62.3-5.7s-53.7,5-53.7,5c-1.7,1.9-3.7,3.5-5.9,4.8c-3.5,1.8-11.7,1.7-11.7,1.7
				h-33.4c-0.3-0.1-0.7,0.1-0.9,0.3c-0.3,0.6-0.5,1.3-0.6,2H270c-0.1-0.7-0.3-1.4-0.6-2c-0.2-0.2-0.6-0.3-0.9-0.3h-33.4
				c0,0-8.2,0.2-11.7-1.7c-2.2-1.2-4.2-2.8-5.9-4.8c0,0-8.8-5-53.7-5s-62.3,5.7-62.3,5.7s-4.1,5.3-4.7,8.6
				c-0.6,3.3-10.1,16.3-10.1,16.3s-21,30-33,65.7c-4,11.9-7.7,37.2-17,64.9c-14.3,42.1-29.1,129.1-32,144.6
				C0.4,441.9,0,508.8,0,508.8s4.5,53.4,36.2,74.9s56.7,14,56.7,14s33.1-8.2,57.8-41.9s56.6-129.2,56.6-129.2
				c1.6-2.1,3.5-3.8,5.7-5.3c1.9-1.3,4-2.2,6.3-2.6h18.1c10.9,6.5,23.7,10.3,37.4,10.3c13.6,0,26.4-3.7,37.3-10.2H403h91.1
				c10.9,6.5,23.7,10.2,37.3,10.2c13.7,0,26.4-3.8,37.4-10.3h17.9c2.3,0.4,4.4,1.3,6.3,2.6c2.2,1.5,4.1,3.2,5.7,5.3
				c0,0,31.9,95.4,56.6,129.2s57.8,41.9,57.8,41.9s25,7.5,56.7-14s36.2-74.9,36.2-74.9S805.8,441.8,801.4,418.7z"/>
		</defs>
		<clipPath id="SVGID_00000094611343725629210840000013567405044785830585_">
			<use xlink:href="#SVGID_1_"  style="overflow:visible;"/>
		</clipPath>
		<g style="clip-path:url(#SVGID_00000094611343725629210840000013567405044785830585_);">
			
				<image style="overflow:visible;enable-background:new    ;" width="3582" height="2398" xlink:href="../../../../Downloads/kai-oberhauser-BKAaLmT0tIs-unsplash.jpg"  transform="matrix(0.2503 0 0 0.2503 -56.199 0)">
			</image>
		</g>
	</g>
</g>
<path class="st4" d="M36.7,276c9.4-27.7,13.1-53,17-64.9c12-35.7,33-65.7,33-65.7s9.5-13.1,10.1-16.3s4.7-8.6,4.7-8.6
	s17.4-5.7,62.3-5.7s53.7,5,53.7,5c1.7,1.9,3.7,3.5,5.9,4.8c3.5,1.8,11.7,1.7,11.7,1.7h33.4c0.3-0.1,0.7,0.1,0.9,0.3
	c0.3,0.6,0.5,1.3,0.6,2h266.2c0.1-0.7,0.3-1.4,0.6-2c0.2-0.2,0.6-0.3,0.9-0.3h33.4c0,0,8.2,0.2,11.7-1.7c2.2-1.2,4.2-2.8,5.9-4.8
	c0,0,8.8-5,53.7-5s62.3,5.7,62.3,5.7s4.1,5.3,4.7,8.6s10.1,16.3,10.1,16.3s21,30,33,65.7c4,11.9,7.7,37.2,17,64.9
	c14.3,42.1,29.1,129.1,32,144.6c3.9,20.9,4.6,77.3,4.7,88.3v-0.1c0,0-0.3-66.9-4.7-90.1c-2.9-15.5-17.7-102.5-32-144.6
	c-9.4-27.7-13.1-53-17-64.9c-12-35.7-33-65.7-33-65.7s-9.5-13.1-10.1-16.3s-4.7-8.6-4.7-8.6s-17.4-5.7-62.3-5.7s-53.7,5-53.7,5
	c-1.7,1.9-3.7,3.5-5.9,4.8c-3.5,1.8-11.7,1.7-11.7,1.7h-33.4c-0.3-0.1-0.7,0.1-0.9,0.3c-0.3,0.6-0.5,1.3-0.6,2H270
	c-0.1-0.7-0.3-1.4-0.6-2c-0.2-0.2-0.6-0.3-0.9-0.3h-33.4c0,0-8.2,0.2-11.7-1.7c-2.2-1.2-4.2-2.8-5.9-4.8c0,0-8.8-5-53.7-5
	s-62.3,5.7-62.3,5.7s-4.1,5.3-4.7,8.6c-0.6,3.3-10.1,16.3-10.1,16.3s-21,30-33,65.7c-4,11.9-7.7,37.2-17,64.9
	c-14.3,42.1-29.1,129.1-32,144.6C0.4,441.9,0,508.8,0,508.8v0.1c0.1-10.9,0.7-67.4,4.7-88.3C7.7,405.2,22.4,318.1,36.7,276z"/>
<g>
	<g>
		<defs>
			<path id="SVGID_00000062159590422798653110000002801742204115550896_" d="M351.3,360c0-29.3-16.5-54.7-40.6-67.6
				c22.2,12.5,37.1,36.3,37.1,63.6c0,40.3-32.7,73-73,73s-73-32.7-73-73c0-27.3,15-51,37.1-63.6c-24.2,12.9-40.6,38.3-40.6,67.6
				c0,0.7,0,1.3,0.1,2c0,0.7-0.1,1.3-0.1,2c0,42.2,34.3,76.5,76.5,76.5s76.5-34.3,76.5-76.5c0-0.7,0-1.3-0.1-2
				C351.2,361.3,351.3,360.6,351.3,360z"/>
		</defs>
		<clipPath id="SVGID_00000103982651676254915490000010859954791094203323_">
			<use xlink:href="#SVGID_00000062159590422798653110000002801742204115550896_"  style="overflow:visible;"/>
		</clipPath>
		<g style="clip-path:url(#SVGID_00000103982651676254915490000010859954791094203323_);">
			
				<image style="overflow:visible;enable-background:new    ;" width="3582" height="2398" xlink:href="../kai-oberhauser-BKAaLmT0tIs-unsplash Dark.png"  transform="matrix(0.2514 0 0 0.2514 -50.8487 0)">
			</image>
		</g>
	</g>
</g>
<g>
	<circle class="st6" cx="274.8" cy="356" r="51.5"/>
</g>
<g>
	<g>
		<defs>
			<path id="SVGID_00000021799591991971116680000007872743963544493954_" d="M607.9,360c0-29.3-16.5-54.7-40.6-67.6
				c22.2,12.5,37.1,36.3,37.1,63.6c0,40.3-32.7,73-73,73s-73-32.7-73-73c0-27.3,15-51,37.1-63.6c-24.2,12.9-40.6,38.3-40.6,67.6
				c0,0.7,0,1.3,0.1,2c0,0.7-0.1,1.3-0.1,2c0,42.2,34.3,76.5,76.5,76.5s76.5-34.3,76.5-76.5c0-0.7,0-1.3-0.1-2
				C607.9,361.3,607.9,360.7,607.9,360z"/>
		</defs>
		<clipPath id="SVGID_00000105418136423809939800000004181270017197670808_">
			<use xlink:href="#SVGID_00000021799591991971116680000007872743963544493954_"  style="overflow:visible;"/>
		</clipPath>
		<g style="clip-path:url(#SVGID_00000105418136423809939800000004181270017197670808_);">
			
				<image style="overflow:visible;enable-background:new    ;" width="3582" height="2398" xlink:href="../kai-oberhauser-BKAaLmT0tIs-unsplash Dark.png"  transform="matrix(0.2497 0 0 0.2497 -47.9053 0)">
			</image>
		</g>
	</g>
</g>
<g>
	<circle class="st6" cx="531.4" cy="356" r="51.5"/>
</g>
<path class="st8" d="M534.9,128c-0.5-3.2-3.2-5.6-6.5-5.6H277.8c-3.3,0-6.1,2.4-6.5,5.6c-0.1,0.7-0.1,1.4-0.1,2.1v127.4
	c0,8.9,7.2,16.1,16.1,16.1l0,0h231.6c8.9,0,16.1-7.2,16.1-16.1l0,0V130.1C535.1,129.4,535,128.7,534.9,128z"/>
<g>
	<path class="st9" d="M530.5,124.3c0-1-0.9-1.9-1.9-1.9l0,0H277.5c-1,0-1.9,0.9-1.9,1.9v129.2c0,8.6,7,15.6,15.6,15.6H515
		c8.6,0,15.6-7,15.6-15.6V130.4L530.5,124.3z"/>
	<g class="st10">
		
			<pattern  id="SVGID_00000050659066966447144030000007912204696868382338_" xlink:href="#SVGID_0000004702634331666063813" patternTransform="matrix(0.1 0 0 0.1 -28983.1602 2553.647)"  class="st10">
		</pattern>
		<path style="fill:url(#SVGID_00000050659066966447144030000007912204696868382338_);" d="M275.6,253.5c0,8.6,7,15.6,15.6,15.6H515
			c8.6,0,15.6-7,15.6-15.6V147H275.7v106.5H275.6z"/>
	</g>
</g>
<ellipse class="st6" cx="652.4" cy="244.8" rx="92.8" ry="92.8"/>
<g>
	<g>
		<defs>
			<path id="SVGID_00000131354370431443781840000003449246915155478422_" d="M652.4,153.5c50.3,0,91.3,41,91.3,91.3
				s-41,91.3-91.3,91.3s-91.3-41-91.3-91.3S602.1,153.5,652.4,153.5 M652.4,150.5c-52.1,0-94.3,42.2-94.3,94.3s42.2,94.3,94.3,94.3
				s94.3-42.2,94.3-94.3S704.5,150.5,652.4,150.5L652.4,150.5z"/>
		</defs>
		<clipPath id="SVGID_00000053542020743799864560000007908992855999566485_">
			<use xlink:href="#SVGID_00000131354370431443781840000003449246915155478422_"  style="overflow:visible;"/>
		</clipPath>
		<g style="clip-path:url(#SVGID_00000053542020743799864560000007908992855999566485_);">
			
				<image style="overflow:visible;enable-background:new    ;" width="3582" height="2398" xlink:href="../kai-oberhauser-BKAaLmT0tIs-unsplash Dark.png"  transform="matrix(0.2509 0 0 0.2509 -59.2143 0)">
			</image>
		</g>
	</g>
</g>
<ellipse class="st6" cx="153.8" cy="244.8" rx="92.8" ry="92.8"/>
<g>
	<g>
		<defs>
			<path id="SVGID_00000055664679251369534650000005059135547629394585_" d="M153.8,153.5c50.3,0,91.3,41,91.3,91.3
				s-41,91.3-91.3,91.3s-91.3-41-91.3-91.3S103.5,153.5,153.8,153.5 M153.8,150.5c-52.1,0-94.3,42.2-94.3,94.3s42.2,94.3,94.3,94.3
				s94.3-42.2,94.3-94.3S205.9,150.5,153.8,150.5L153.8,150.5z"/>
		</defs>
		<clipPath id="SVGID_00000176755278312506761330000000317330292016446911_">
			<use xlink:href="#SVGID_00000055664679251369534650000005059135547629394585_"  style="overflow:visible;"/>
		</clipPath>
		<g style="clip-path:url(#SVGID_00000176755278312506761330000000317330292016446911_);">
			
				<image style="overflow:visible;enable-background:new    ;" width="3582" height="2398" xlink:href="../kai-oberhauser-BKAaLmT0tIs-unsplash Dark.png"  transform="matrix(0.2508 0 0 0.2508 -49.7897 0)">
			</image>
		</g>
	</g>
</g>
<path class="st14" d="M230.5,254.1l9.5-8.9c0.5-0.4,0.5-1.2,0.1-1.6c0,0,0-0.1-0.1-0.1l-9.5-8.9c-0.4-0.4-1.2-0.4-1.6,0
	c-0.2,0.2-0.3,0.5-0.3,0.8v17.8c0,0.6,0.5,1.2,1.1,1.2C230,254.4,230.3,254.3,230.5,254.1z"/>
<path class="st14" d="M145.1,169.8h17.8c0.6,0,1.1-0.5,1.1-1.1c0-0.3-0.1-0.6-0.3-0.8l-8.9-9.5c-0.4-0.5-1.2-0.5-1.6-0.1
	c0,0-0.1,0-0.1,0.1l-8.9,9.5c-0.4,0.5-0.3,1.2,0.2,1.6C144.6,169.7,144.8,169.8,145.1,169.8z"/>
<path class="st14" d="M77.6,234.6l-9.5,8.9c-0.5,0.4-0.5,1.2-0.1,1.6c0,0,0,0.1,0.1,0.1l9.5,8.9c0.4,0.4,1.2,0.4,1.6,0
	c0.2-0.2,0.3-0.5,0.3-0.8v-17.8c0-0.6-0.5-1.2-1.1-1.2C78.1,234.3,77.8,234.4,77.6,234.6z"/>
<path class="st14" d="M162.9,318.8h-17.8c-0.6,0-1.1,0.5-1.1,1.1c0,0.3,0.1,0.6,0.3,0.8l8.9,9.5c0.4,0.5,1.2,0.5,1.6,0.1
	c0,0,0.1,0,0.1-0.1l8.9-9.5c0.4-0.5,0.3-1.2-0.2-1.6C163.4,318.9,163.2,318.8,162.9,318.8z"/>
<g>
	<g>
		<g>
			<path class="st6" d="M547.7,134.6c-0.2,2.3-2.1,4-4.4,3.8c-2-0.1-3.7-1.8-3.8-3.8c0-2.1,1.7-3.8,3.8-3.8c0.1,0,0.2,0,0.3,0
				c2.1-0.2,3.9,1.3,4.1,3.4C547.7,134.3,547.7,134.5,547.7,134.6z M541,134.6c-0.1,1.4,0.9,2.6,2.3,2.7c0.1,0,0.2,0,0.3,0
				c1.4,0,2.6-1.1,2.6-2.5c0-0.1,0-0.2,0-0.2c0-1.4-1.2-2.6-2.6-2.6S541,133.2,541,134.6L541,134.6L541,134.6z"/>
		</g>
		<g>
			<path class="st6" d="M549,131h3.8c2.4,0,2.9,1.3,2.9,2.2s-0.5,2.2-2.9,2.2h-2.3v2.8H549V131z M550.5,134.4h2.2
				c0.7,0,1.5-0.3,1.5-1.2s-0.7-1.2-1.5-1.2h-2.2V134.4z"/>
		</g>
		<g>
			<polygon class="st6" points="556.2,131 563.1,131 563.1,132.1 560.4,132.1 560.4,138.2 558.9,138.2 558.9,132.1 556.2,132.1 			
				"/>
		</g>
		<g>
			<rect x="564.2" y="131" class="st6" width="1.5" height="7.2"/>
		</g>
		<g>
			<path class="st6" d="M575.2,134.6c-0.2,2.3-2.1,4-4.4,3.8c-2-0.1-3.7-1.8-3.8-3.8c0-2.1,1.7-3.8,3.8-3.8c0.1,0,0.2,0,0.3,0
				c2.1-0.2,3.9,1.3,4.1,3.4C575.2,134.3,575.2,134.5,575.2,134.6z M568.5,134.6c-0.1,1.4,0.9,2.6,2.3,2.7c0.1,0,0.2,0,0.3,0
				c1.4,0,2.6-1.1,2.6-2.5c0-0.1,0-0.2,0-0.2c0-1.4-1.2-2.6-2.6-2.6S568.5,133.2,568.5,134.6L568.5,134.6L568.5,134.6z"/>
		</g>
		<g>
			<polygon class="st6" points="576.6,131 578.1,131 582,136.3 582,136.3 582,131 583.4,131 583.4,138.2 581.8,138.2 577.9,132.9 
				577.9,132.9 577.9,138.2 576.5,138.2 576.5,131 			"/>
		</g>
		<g>
			<path class="st6" d="M586.3,135.8c0,1.1,1,1.5,2.2,1.5s1.8-0.6,1.8-1.1c0-0.4-0.3-0.8-0.7-0.9c-0.6-0.2-1.4-0.3-2.6-0.6
				c-1.5-0.3-1.9-1.1-1.9-1.8c0-1.5,1.6-2.1,3.1-2.1c1.8,0,3.3,0.8,3.3,2.3H590c-0.1-0.9-0.8-1.3-1.8-1.3c-0.7,0-1.6,0.2-1.6,0.9
				c0,0.5,0.4,0.8,1,0.9c0.8,0.1,1.7,0.4,2.5,0.6c0.9,0.2,1.6,0.9,1.7,1.8c0,1.6-1.7,2.3-3.4,2.3c-2,0-3.5-0.8-3.6-2.6h1.5
				L586.3,135.8L586.3,135.8z"/>
		</g>
	</g>
	<g>
		<g>
			<path class="st6" d="M222.3,135.8c0,1.1,1,1.5,2.2,1.5s1.8-0.6,1.8-1.1c0-0.4-0.3-0.8-0.7-0.9c-0.6-0.2-1.4-0.3-2.6-0.6
				c-1.5-0.3-1.9-1.1-1.9-1.8c0-1.5,1.6-2.1,3.1-2.1c1.8,0,3.3,0.8,3.3,2.3H226c-0.1-0.9-0.8-1.3-1.8-1.3c-0.7,0-1.6,0.2-1.6,0.9
				c0,0.5,0.4,0.8,1,0.9c0.8,0.1,1.7,0.4,2.5,0.6c0.9,0.2,1.6,0.9,1.7,1.8c0,1.6-1.7,2.3-3.4,2.3c-2,0-3.5-0.8-3.6-2.6h1.5
				L222.3,135.8L222.3,135.8z"/>
		</g>
		<g>
			<polygon class="st6" points="229,131 230.5,131 230.5,133.9 234.4,133.9 234.4,131 235.9,131 235.9,138.2 234.4,138.2 
				234.4,134.9 230.5,134.9 230.5,138.1 229,138.1 			"/>
		</g>
		<g>
			<path class="st6" d="M240,131h1.6l3.3,7.2h-1.6l-0.8-1.9h-3.4l-0.8,1.9h-1.5L240,131z M239.5,135.3h2.6l-1.3-3.1l0,0L239.5,135.3
				z"/>
		</g>
		<g>
			<path class="st6" d="M245.7,131h4.1c1.9,0,2.8,0.7,2.8,1.9c0,0.9-0.6,1.6-1.4,1.8l0,0c0.8,0.1,1.3,0.7,1.3,1.5s0.1,1.6,0.5,1.9
				h-1.6c-0.2-0.3-0.2-0.7-0.2-1.1c0-1.3-0.3-1.9-1.7-1.9h-2.2v3h-1.5L245.7,131L245.7,131z M247.2,134.2h2.5c1,0,1.5-0.4,1.5-1.1
				c0-0.9-0.7-1.1-1.5-1.1h-2.4v2.2L247.2,134.2z"/>
		</g>
		<g>
			<polygon class="st6" points="254.2,131 260.4,131 260.4,132.1 255.7,132.1 255.7,134 260,134 260,135 255.7,135 255.7,137.1 
				260.4,137.1 260.4,138.2 254.2,138.2 			"/>
		</g>
	</g>
</g>
<g>
	<g>
		<path class="st15" d="M697.3,109.9c0-0.8-0.4-1.5-1.1-1.9c-4.5-2.9-23.4-13.6-51.5-13.6c-26.9,0-41.1,5.9-45.1,8
			c-0.7,0.4-1.2,1.2-1.2,2c0,0,9.8-2.9,47.5-2.9S697.3,109.9,697.3,109.9z"/>
		<path class="st16" d="M697.2,116.8L697.2,116.8v-6.9c0,0-13.7-8.4-51.4-8.4s-47.5,2.9-47.5,2.9v11l0,0c7.7-1.3,21.2-2.6,44.1-2.6
			C670.9,112.9,688.3,115.2,697.2,116.8z"/>
	</g>
	<g>
		<path class="st15" d="M108.9,109.9c0-0.8,0.4-1.5,1.1-1.9c4.5-2.9,23.4-13.6,51.5-13.6c26.9,0,41.1,5.9,45.1,8
			c0.7,0.4,1.2,1.2,1.2,2c0,0-9.8-2.9-47.5-2.9S108.9,109.9,108.9,109.9z"/>
		<path class="st16" d="M109,116.8L109,116.8v-6.9c0,0,13.7-8.4,51.4-8.4s47.5,2.9,47.5,2.9v11l0,0c-7.7-1.3-21.2-2.6-44.1-2.6
			C135.3,112.9,117.9,115.2,109,116.8z"/>
	</g>
</g>
<path class="st16" d="M710,271c-14.5,0-26.3-11.8-26.3-26.3s11.8-26.3,26.3-26.3s26.3,11.8,26.3,26.3l0,0
	C736.3,259.2,724.5,271,710,271z"/>
<path class="st15" d="M710,219.5c14,0,25.3,11.3,25.3,25.3c0,14-11.3,25.3-25.3,25.3s-25.3-11.3-25.3-25.3l0,0
	C684.7,230.8,696,219.5,710,219.5 M710,217.5c-15.1,0-27.3,12.2-27.3,27.3c0,15.1,12.2,27.3,27.3,27.3s27.3-12.2,27.3-27.3l0,0
	C737.3,229.7,725.1,217.5,710,217.5z"/>
<path class="st14" d="M710,225.9c-10.4,0-18.9,8.5-18.9,18.9s8.5,18.9,18.9,18.9s18.9-8.5,18.9-18.9S720.4,225.9,710,225.9z
	 M710,260.8c-8.8,0-16-7.2-16-16s7.2-16,16-16s16,7.2,16,16S718.8,260.8,710,260.8z"/>
<path class="st16" d="M652.4,328.6c-14.5,0-26.3-11.8-26.3-26.3s11.8-26.3,26.3-26.3s26.3,11.8,26.3,26.3l0,0
	C678.7,316.8,666.9,328.6,652.4,328.6z"/>
<path class="st15" d="M652.4,277.1c14,0,25.3,11.3,25.3,25.3s-11.3,25.3-25.3,25.3s-25.3-11.3-25.3-25.3l0,0
	C627.1,288.4,638.4,277.1,652.4,277.1 M652.4,275.1c-15.1,0-27.3,12.2-27.3,27.3s12.2,27.3,27.3,27.3s27.3-12.2,27.3-27.3l0,0
	C679.7,287.3,667.5,275.1,652.4,275.1z"/>
<polygon class="st14" points="666.8,290 664.8,288 652.4,300.4 640.1,288 638.1,290 650.4,302.4 638.1,314.7 640.1,316.8 
	652.4,304.4 664.8,316.8 666.8,314.7 654.4,302.4 "/>
<path class="st16" d="M594.9,271c-14.5,0.1-26.3-11.7-26.4-26.2c-0.1-14.5,11.7-26.3,26.2-26.4s26.3,11.7,26.4,26.2
	c0,0.1,0,0.1,0,0.2C621,259.2,609.3,270.9,594.9,271z"/>
<path class="st15" d="M594.8,219.5c14,0,25.3,11.3,25.3,25.3c0,14-11.3,25.3-25.3,25.3s-25.3-11.3-25.3-25.3l0,0
	C569.5,230.8,580.8,219.5,594.8,219.5 M594.8,217.5c-15.1,0-27.3,12.2-27.3,27.3c0,15.1,12.2,27.3,27.3,27.3s27.3-12.2,27.3-27.3
	l0,0C622.1,229.7,609.9,217.5,594.8,217.5z"/>
<path class="st14" d="M606.4,230.4h-25.8V259h28.6v-28.6H606.4z M606.4,256.3h-23v-23h23V256.3z"/>
<path class="st16" d="M652.4,213.5c-14.5,0-26.3-11.8-26.3-26.3s11.8-26.3,26.3-26.3s26.3,11.8,26.3,26.3l0,0
	C678.7,201.7,666.9,213.5,652.4,213.5z"/>
<path class="st15" d="M652.4,162c14,0,25.3,11.3,25.3,25.3s-11.3,25.3-25.3,25.3s-25.3-11.3-25.3-25.3l0,0
	C627.1,173.3,638.4,162,652.4,162 M652.4,160c-15.1,0-27.3,12.2-27.3,27.3s12.2,27.3,27.3,27.3s27.3-12.2,27.3-27.3l0,0
	C679.7,172.2,667.5,160,652.4,160z"/>
<path class="st14" d="M668.4,195.2l-16-27.6l-16,27.6l-1.6,2.8H670L668.4,195.2z M652.4,195.2h-12.7l12.7-21.9l12.7,21.9H652.4z"/>
<g>
	<g>
		<g>
			<circle class="st6" cx="403.1" cy="316.4" r="4.1"/>
		</g>
		<g>
			<circle class="st6" cx="403.1" cy="295.5" r="4.1"/>
		</g>
		<g>
			<circle class="st6" cx="396.2" cy="305.7" r="4.1"/>
		</g>
		<g>
			<circle class="st6" cx="381.5" cy="305.7" r="4.1"/>
		</g>
		<g>
			<circle class="st6" cx="388.8" cy="316.4" r="4.1"/>
		</g>
		<g>
			<circle class="st6" cx="388.8" cy="295.5" r="4.1"/>
		</g>
		<g>
			<circle class="st6" cx="374.5" cy="295.5" r="4.1"/>
		</g>
	</g>
	<g>
		<g>
			<circle class="st6" cx="410" cy="305.7" r="4.1"/>
		</g>
		<g>
			<circle class="st6" cx="424.7" cy="305.7" r="4.1"/>
		</g>
		<g>
			<circle class="st6" cx="417.3" cy="316.4" r="4.1"/>
		</g>
		<g>
			<circle class="st6" cx="417.3" cy="295.5" r="4.1"/>
		</g>
		<g>
			<circle class="st6" cx="431.7" cy="295.5" r="4.1"/>
		</g>
	</g>
</g>
<g>
	<g>
		<path class="st6" d="M403.1,383.7c-12,0-21.7-9.7-21.7-21.7s9.7-21.7,21.7-21.7s21.7,9.7,21.7,21.7S415.1,383.7,403.1,383.7z"/>
		<path class="st17" d="M403.1,341.8c11.2,0,20.2,9,20.2,20.2s-9,20.2-20.2,20.2s-20.2-9-20.2-20.2S391.9,341.8,403.1,341.8
			 M403.1,338.8c-12.8,0-23.2,10.4-23.2,23.2s10.4,23.2,23.2,23.2s23.2-10.4,23.2-23.2S415.9,338.8,403.1,338.8L403.1,338.8z"/>
	</g>
	<g>
		<path class="st14" d="M404.2,368.6v-12.8c0-0.4,0.1-0.7,0.3-1c0.2-0.2,0.4-0.3,0.7-0.2c0.6,0.2,0.9,0.7,0.9,1.7v6.9
			c0.6,0.3,1.4,0.5,2.1,0.5c0.6,0,1.1-0.2,1.6-0.5c1-0.7,1.5-1.9,1.5-3.7c0.1-1.5-0.3-3.1-1.2-4.3c-1.1-1.2-2.5-2.1-4.1-2.6
			c-1.3-0.4-2.5-0.8-3.6-1.1s-2-0.5-2.9-0.7V363l0,0v2.7l0,0v1.7l0,0v2.5l0,0v1.5l4.7,1.5v-3.6l0,0V368.6z"/>
		<path class="st14" d="M399.1,367.6l-1.7,0.6l-0.9,0.4l-1.6,0.3l-1.5-0.2c-0.3-0.2-0.4-0.4-0.2-0.6s0.2-0.1,0.3-0.2
			s0.3-0.1,0.4-0.2l1.1-0.4l4.1-1.5v-2.7l-1.7,0.5l-5.5,2l-1,0.4c-1.5,0.6-2.2,1.2-2.2,1.8c0.1,0.8,1,1.5,2.7,1.9
			c1.4,0.4,2.9,0.5,4.3,0.5c1.1,0,2.2-0.1,3.3-0.3L399.1,367.6L399.1,367.6z"/>
		<path class="st14" d="M414.9,365.3c-0.8-0.3-1.6-0.5-2.5-0.6c-0.8-0.1-1.7-0.2-2.5-0.1c-0.9,0.1-1.9,0.2-2.8,0.3
			c-0.9,0.2-1.8,0.5-2.6,0.8v2.8l3.9-1.4l1.6-0.5l1.1-0.3h1.4c0.3,0.1,0.6,0.2,0.7,0.4s-0.2,0.4-0.8,0.6l-1.4,0.5l-6.5,2.4v2.7
			l3.5-1.3l6.4-2.3l0.7-0.4c1.5-0.5,2.2-1.2,2.2-1.9S416.5,365.8,414.9,365.3z"/>
	</g>
</g>
<path class="st18" d="M105.3,544.5C64.8,541.7,29.5,524.2,18,514S0.5,482.5,0.5,482.5c-0.4,15-0.4,26.3-0.4,26.3s4.5,53.4,36.2,74.9
	s56.7,14,56.7,14s33.1-8.2,57.8-41.9c5.3-7.6,10-15.5,14.1-23.8C164.8,531.9,145.7,547.2,105.3,544.5z"/>
<path class="st18" d="M700.9,544.5c40.5-2.8,75.8-20.3,87.3-30.5s17.5-31.5,17.5-31.5c0.4,15,0.4,26.3,0.4,26.3s-4.5,53.4-36.2,74.9
	s-56.7,14-56.7,14s-33.1-8.2-57.8-41.9c-5.3-7.6-10-15.5-14.1-23.8C641.4,531.9,660.5,547.2,700.9,544.5z"/>
<g>
	<path class="st16" d="M105.3,544.5C64.8,541.7,29.5,524.2,18,514S0.5,482.5,0.5,482.5c-0.4,15-0.4,26.3-0.4,26.3
		s4.5,53.4,36.2,74.9s56.7,14,56.7,14s33.1-8.2,57.8-41.9c5.3-7.6,10-15.5,14.1-23.8C164.8,531.9,145.7,547.2,105.3,544.5z"/>
	
		<pattern  id="SVGID_00000041279389879705636930000013382697100993200056_" xlink:href="#SVGID_0000003478933974199255531" patternTransform="matrix(0.3268 9.371670e-02 -9.371670e-02 0.3268 -21662.7852 11541.8271)">
	</pattern>
	
		<path style="opacity:8.000000e-02;fill:url(#SVGID_00000041279389879705636930000013382697100993200056_);enable-background:new    ;" d="
		M105.3,544.5C64.8,541.7,29.5,524.2,18,514S0.5,482.5,0.5,482.5c-0.4,15-0.4,26.3-0.4,26.3s4.5,53.4,36.2,74.9s56.7,14,56.7,14
		s33.1-8.2,57.8-41.9c5.3-7.6,10-15.5,14.1-23.8C164.8,531.9,145.7,547.2,105.3,544.5z"/>
	<path class="st20" d="M90.1,592.5c-12.5,1.8-31.3-2-45.1-7.7c-13.6-5.7-24-16.4-24-16.4c4.2,5.9,9.4,11,15.3,15.2
		c31.7,21.5,56.7,14,56.7,14s11.7-2.9,26.3-12.3C109.8,588.6,100,591,90.1,592.5z"/>
	<g>
		<path class="st16" d="M700.9,544.5c40.5-2.8,75.8-20.3,87.3-30.5s17.5-31.5,17.5-31.5c0.4,15,0.4,26.3,0.4,26.3
			s-4.5,53.4-36.2,74.9s-56.7,14-56.7,14s-33.1-8.2-57.8-41.9c-5.3-7.6-10-15.5-14.1-23.8C641.4,531.9,660.5,547.2,700.9,544.5z"/>
		
			<pattern  id="SVGID_00000145770868792528482350000007371828649452130186_" xlink:href="#SVGID_0000014505062166225811435" patternTransform="matrix(-0.33 9.000000e-02 9.000000e-02 0.33 -42794.5781 11641.165)">
		</pattern>
		
			<path style="opacity:8.000000e-02;fill:url(#SVGID_00000145770868792528482350000007371828649452130186_);enable-background:new    ;" d="
			M700.9,544.5c40.5-2.8,75.8-20.3,87.3-30.5s17.5-31.5,17.5-31.5c0.4,15,0.4,26.3,0.4,26.3s-4.5,53.4-36.2,74.9s-56.7,14-56.7,14
			s-33.1-8.2-57.8-41.9c-5.3-7.6-10-15.5-14.1-23.8C641.4,531.9,660.5,547.2,700.9,544.5z"/>
		<path class="st20" d="M716.1,592.5c12.5,1.8,31.3-2,45.1-7.7c13.6-5.7,24-16.4,24-16.4c-4.2,5.9-9.4,11-15.3,15.2
			c-31.7,21.5-56.7,14-56.7,14s-11.7-2.9-26.3-12.3C696.4,588.6,706.2,591,716.1,592.5z"/>
	</g>
	<g>
		<path class="st17" d="M240.6,143.5c6.9,0,12.5,5.6,12.5,12.5v18.3c0,6.9-5.6,12.5-12.5,12.5s-12.5-5.6-12.5-12.5V156
			C228.1,149.1,233.7,143.5,240.6,143.5 M240.6,141.8c-7.8,0-14.2,6.4-14.2,14.2v18.3c0,7.8,6.4,14.2,14.2,14.2s14.2-6.4,14.2-14.2
			V156C254.8,148.2,248.5,141.8,240.6,141.8L240.6,141.8z"/>
		<g>
			<path class="st6" d="M240.6,143.5c-6.9,0-12.5,5.6-12.5,12.5v18.3c0,6.9,5.6,12.5,12.5,12.5s12.5-5.6,12.5-12.5V156
				C253.1,149.1,247.5,143.5,240.6,143.5z"/>
		</g>
	</g>
	<g>
		<g>
			<g>
				<path class="st17" d="M565.6,143.5c6.9,0,12.5,5.6,12.5,12.5v18.3c0,6.9-5.6,12.5-12.5,12.5l0,0l0,0c-6.9,0-12.5-5.6-12.5-12.5
					l0,0V156C553.1,149.1,558.7,143.5,565.6,143.5L565.6,143.5 M565.6,141.8c-7.8,0-14.2,6.4-14.2,14.2v18.3
					c0,7.8,6.4,14.2,14.2,14.2s14.2-6.4,14.2-14.2l0,0V156C579.8,148.2,573.5,141.8,565.6,141.8L565.6,141.8z"/>
			</g>
		</g>
		<g>
			<path class="st6" d="M565.6,143.5c-6.9,0-12.5,5.6-12.5,12.5v18.3c0,6.9,5.6,12.5,12.5,12.5s12.5-5.6,12.5-12.5V156
				C578.1,149.1,572.5,143.5,565.6,143.5z"/>
		</g>
	</g>
	<g>
		<path class="st16" d="M141.3,247.2c1.4-2,1.2-2.9,1.2-2.9s0.2-0.9-1.2-2.9s-15-13.6-15.7-14s-28.5-2.2-31.4,1.3
			s-2.6,15.6-2.6,15.6s-0.3,12.1,2.6,15.6s30.7,1.7,31.4,1.3S139.9,249.2,141.3,247.2z"/>
		<path class="st16" d="M151.1,231.6c2,1.4,2.9,1.2,2.9,1.2s0.9,0.2,2.9-1.2s13.6-15,14-15.7s2.2-28.5-1.3-31.4s-15.6-2.6-15.6-2.6
			s-12.1-0.3-15.6,2.6s-1.7,30.7-1.3,31.4S149.1,230.2,151.1,231.6z"/>
		<path class="st16" d="M213.8,228.8c-2.9-3.5-30.7-1.7-31.4-1.3s-14.3,12-15.7,14s-1.2,2.9-1.2,2.9s-0.2,0.9,1.2,2.9
			s15,13.6,15.7,14s28.5,2.2,31.4-1.3s2.6-15.6,2.6-15.6S216.7,232.3,213.8,228.8z"/>
		<path class="st16" d="M156.9,257.1c-2-1.4-2.9-1.2-2.9-1.2s-0.9-0.2-2.9,1.2s-13.6,15-14,15.7s-2.2,28.5,1.3,31.4
			s15.6,2.6,15.6,2.6s12.1,0.3,15.6-2.6s1.7-30.7,1.3-31.4S158.9,258.5,156.9,257.1z"/>
	</g>
	<g class="st22">
		<path class="st15" d="M141.3,247.2c1.4-2,1.2-2.9,1.2-2.9s0.2-0.9-1.2-2.9c-0.9-1.3-6.9-6.6-11.2-10.3c-2.2,4.1-3.4,8.6-3.4,13.2
			c0,4.6,1.1,9.2,3.4,13.2C134.4,253.8,140.4,248.5,141.3,247.2z"/>
		<path class="st15" d="M151.1,231.6c2,1.4,2.9,1.2,2.9,1.2s0.9,0.2,2.9-1.2c1.3-0.9,6.6-6.9,10.3-11.2c-4.1-2.2-8.6-3.4-13.2-3.4
			c-4.6,0-9.2,1.1-13.2,3.4C144.6,224.7,149.8,230.7,151.1,231.6z"/>
		<path class="st15" d="M178,231.2c-4.3,3.7-10.3,9-11.2,10.3c-1.4,2-1.2,2.9-1.2,2.9s-0.2,0.9,1.2,2.9c0.9,1.3,6.9,6.6,11.2,10.3
			C182.5,249.4,182.5,239.4,178,231.2L178,231.2z"/>
		<path class="st15" d="M156.9,257.1c-2-1.4-2.9-1.2-2.9-1.2s-0.9-0.2-2.9,1.2c-1.3,0.9-6.6,6.9-10.3,11.2c4.1,2.2,8.6,3.4,13.2,3.4
			c4.6,0,9.2-1.1,13.2-3.4C163.5,264,158.2,258,156.9,257.1z"/>
	</g>
</g>
<g>
	<path class="st6" d="M436.7,421h-67.9c-2.8,0-4.6,0.6-4.6-2.2l0,0c0-2.8,2.2-5,5-5h67.9c2.8,0,5,2.2,5,5l0,0
		C442.2,421.5,439.5,421,436.7,421z"/>
</g>
<path class="st15" d="M408.4,418.8h-36.5c-0.5,0-0.9-0.4-0.9-0.9l0,0c0-1.1,0.9-2,2-2h34.2c1.1,0,2,0.9,2,2l0,0
	c0.1,0.4-0.2,0.8-0.6,0.9C408.5,418.8,408.5,418.8,408.4,418.8z"/>
<path class="st15" d="M430.6,419.6h-4.2c-0.9,0-1.7-0.8-1.7-1.7l0,0c0-1.5,1.3-2.8,2.8-2.8h1.9c1.5,0,2.8,1.3,2.8,2.8l0,0
	c0.1,0.8-0.5,1.6-1.3,1.7C430.8,419.6,430.7,419.6,430.6,419.6z"/>
<g>
	<path class="st23" d="M534.9,128c-0.5-3.2-3.2-5.6-6.5-5.6H277.8c-3.3,0-6.1,2.4-6.5,5.6c-0.1,0.7-0.1,1.4-0.1,2.1v127.4
		c0,8.9,7.2,16.1,16.1,16.1l0,0h231.6c8.9,0,16.1-7.2,16.1-16.1l0,0V130.1C535.1,129.4,535,128.7,534.9,128z"/>
	<g>
		<path class="st16" d="M530.5,124.3c0-1-0.9-1.9-1.9-1.9l0,0H277.5c-1,0-1.9,0.9-1.9,1.9v129.2c0,8.6,7,15.6,15.6,15.6H515
			c8.6,0,15.6-7,15.6-15.6V130.4L530.5,124.3z"/>
		<g class="st24">
			
				<pattern  id="SVGID_00000168092725118202637050000008917063992810299532_" xlink:href="#SVGID_0000008809713174215827409" patternTransform="matrix(0.1 0 0 0.1 -28983.1602 2553.647)"  class="st24">
			</pattern>
			<path style="fill:url(#SVGID_00000168092725118202637050000008917063992810299532_);" d="M275.6,253.5c0,8.6,7,15.6,15.6,15.6
				H515c8.6,0,15.6-7,15.6-15.6V147H275.7v106.5H275.6z"/>
		</g>
	</g>
</g>
<g>
	<g>
		<g>
			<path class="st16" d="M697.2,90.8c0,0-32.7-3.2-50.6-3.2S598.3,90,598.3,90s3.1-44.7,4.8-52s7.7-21.3,16.9-27.9S632,0,642.8,0
				s25.4,6.4,34.6,21.4S697.2,90.8,697.2,90.8z"/>
			<path class="st15" d="M598.8,83.2c0,0,26.1-4.4,49-4.4s47.9,4.4,47.9,4.4c1,4.7,1.6,7.6,1.6,7.6s-32.7-3.2-50.6-3.2
				S598.4,90,598.4,90S598.4,87.3,598.8,83.2z"/>
		</g>
		<g class="st26">
			<path class="st2" d="M648.8,65.7l-3.2,2.6c-1.2,1.2-1.9,2.8-2,4.5h9.8v-2.6h-6.3c0.6-0.8,1.3-1.4,2.1-1.9c1-0.6,1.9-1.3,2.7-2.1
				c0.8-0.9,1.3-2.1,1.3-3.3c0-1.3-0.5-2.5-1.4-3.3c-1-0.8-2.2-1.2-3.5-1.2c-3.1,0-4.7,1.7-4.7,5h2.7c0-1.8,0.7-2.7,2.1-2.7
				c1-0.1,1.9,0.6,2,1.6c0,0.2,0,0.3,0,0.5C650.4,64,649.8,65.1,648.8,65.7z"/>
			<path class="st2" d="M631.2,67.2h3c1.5,0,2.3,0.6,2.4,1.9s0.2,2.5,0.3,3.8h3.3v-0.4c-0.5-0.2-0.7-0.7-0.7-1.5
				c0-0.3,0-0.5,0.1-0.8v-0.7c0.2-1.4-0.6-2.8-1.8-3.5c1.4-0.5,2.3-1.9,2.2-3.4c0.1-1.2-0.4-2.3-1.3-3c-0.9-0.7-2-1.1-3.2-1h-7.3
				v14.3h3V67.2z M631.2,60.9h3.7c1.4,0,2.1,0.6,2.1,1.9s-0.8,1.9-2.3,1.9h-3.5V60.9z"/>
		</g>
	</g>
	<g>
		<g>
			<path class="st16" d="M108.9,90.8c0,0,32.7-3.2,50.6-3.2s48.3,2.4,48.3,2.4s-3.1-44.7-4.8-52s-7.7-21.3-16.9-27.9
				S174.1,0,163.3,0s-25.4,6.4-34.6,21.4S108.9,90.8,108.9,90.8z"/>
			<path class="st15" d="M207.3,83.2c0,0-26.1-4.4-49-4.4s-47.9,4.4-47.9,4.4c-1,4.7-1.6,7.6-1.6,7.6s32.7-3.2,50.6-3.2
				s48.3,2.4,48.3,2.4S207.7,87.3,207.3,83.2z"/>
		</g>
		<g class="st26">
			<path class="st2" d="M173.4,65.7l-3.2,2.6c-1.2,1.2-1.9,2.8-2,4.5h9.8v-2.6h-6.2c0.6-0.8,1.3-1.4,2.1-1.9c1-0.6,1.9-1.3,2.7-2.1
				c0.8-0.9,1.3-2.1,1.3-3.3c0-1.3-0.5-2.5-1.4-3.3c-1-0.8-2.2-1.2-3.5-1.2c-3.1,0-4.7,1.7-4.7,5h2.7c0-1.8,0.7-2.7,2.1-2.7
				c1-0.1,1.9,0.6,2,1.6c0,0.2,0,0.3,0,0.5C175,64,174.4,65.1,173.4,65.7z"/>
			<polygon class="st2" points="164.9,70.1 157.8,70.1 157.8,58.5 154.8,58.5 154.8,72.8 164.9,72.8 			"/>
		</g>
	</g>
</g>
</svg>
